<svg xmlns="http://www.w3.org/2000/svg" viewBox="0 0 32 32" width="32" height="32">
  <!-- Golden yellow background square -->
  <rect x="0" y="0" width="32" height="32" fill="#EBC000"/>
  <!-- White Sentry icon -->
  <path d="M13.5,6.26a2.33,2.33,0,0,0-4,0L7.21,9.53A16.1,16.1,0,0,1,16.08,22.19H13.77A13.84,13.84,0,0,0,6.04,11.47L3,16a7.96,7.96,0,0,1,4.61,6.08H2.31A.38.38,0,0,1,2,21.53l1.47-2.5a5.37,5.37,0,0,0-1.68-.95l-1.45,2.5a2.27,2.27,0,0,0,.84,3.12A2.33,2.33,0,0,0,2.31,24H9.57a9.7,9.7,0,0,0-4-8.65l1.15-2A11.93,11.93,0,0,1,11.88,24H18.03a17.94,17.94,0,0,0-8.2-15.9l2.33-4a.38.38,0,0,1,.52-.13c.26.14,10.14,17.38,10.33,17.58a.38.38,0,0,1-.34.56H20.3q.04.95,0,1.9h2.39A2.29,2.29,0,0,0,25,21.71a2.24,2.24,0,0,0-.31-1.14Z" transform="translate(3.5, 4)" fill="white"/>
</svg>