<svg width="237" height="58" viewBox="0 0 237 58" fill="none" xmlns="http://www.w3.org/2000/svg">
<path fill-rule="evenodd" clip-rule="evenodd" d="M24.6845 4.23853C24.6845 4.23853 19.9996 10.0706 22.6167 14.0224C25.2338 17.9741 33.1173 13.3212 24.6845 4.23853ZM42.4547 13.4168C42.4547 13.4168 35.185 11.3772 32.5034 15.2971C29.7894 19.1533 37.1559 24.571 42.4547 13.4168ZM20.6781 42.7684C21.9705 43.9157 22.5844 45.3179 22.5844 47.0388L23.3275 47.0335L23.3275 47.0389H27.7216C27.7216 45.3179 28.3354 43.9157 29.6278 42.7684C34.2158 38.6573 45.7826 38.8166 49.8536 39.2309L50.3059 34.9286C49.6597 34.8649 33.6665 33.3351 26.6876 39.5496C26.1046 40.0663 25.5968 40.6201 25.1646 41.2098C24.7274 40.6082 24.2118 40.0438 23.6183 39.5177C16.6674 33.3282 0.806476 34.8208 0.00890659 34.8959L0 34.8967L0.452335 39.2309C4.52334 38.8166 16.0902 38.6573 20.6781 42.7684ZM47.2366 24.2205C47.2366 24.2205 40.4839 20.9061 37.0914 24.2524C33.6989 27.5986 39.9346 34.2593 47.2366 24.2205ZM24.7814 20.5556C24.7814 20.5556 19.935 26.2602 22.4228 30.2757C24.9107 34.2912 32.9234 29.8932 24.7814 20.5556ZM7.39887 13.4168C7.39887 13.4168 14.6685 11.3772 17.3502 15.2971C20.0319 19.217 12.6976 24.571 7.39887 13.4168ZM2.61702 24.2205C2.61702 24.2205 9.36971 20.9061 12.7622 24.2524C16.1547 27.5986 9.88667 34.2593 2.61702 24.2205Z" fill="#FBB040"/>
<path fill-rule="evenodd" clip-rule="evenodd" d="M195.327 34.2593C194.326 33.2714 193.841 31.9648 193.841 30.3713V0H185.861V30.2438C185.828 34.0363 186.992 37.0957 189.382 39.4221C191.622 41.6005 194.501 42.7735 197.966 42.9141C198.151 42.9216 198.338 42.9261 198.526 42.9277H200.109V35.7891H199.334C197.654 35.7572 196.329 35.2791 195.327 34.2593ZM118.843 13.6081C115.45 10.2619 111.315 8.5728 106.436 8.5728C101.525 8.5728 97.3568 10.2619 93.932 13.6081C90.5395 16.9863 88.8271 21.0974 88.8271 26.0052C88.8271 30.8812 90.5395 35.0242 93.9643 38.4342C97.3891 41.8442 101.492 43.5651 106.274 43.5651C111.25 43.5651 115.45 41.8761 118.843 38.4979C122.235 35.1198 123.948 30.945 123.948 26.0052C123.948 21.0974 122.235 16.9544 118.843 13.6081ZM99.8447 33.0164C98.003 31.0406 97.066 28.7778 97.066 26.1964C97.066 23.4876 98.003 21.1292 99.8447 19.1852C101.686 17.2412 103.883 16.2533 106.468 16.2533C108.988 16.2533 111.218 17.2093 113.027 19.1852C114.836 21.1611 115.773 23.4238 115.773 26.069C115.773 28.746 114.804 31.0724 112.93 33.0164C111.024 34.9605 108.859 35.9484 106.436 35.9484C103.916 35.9484 101.719 34.9605 99.8447 33.0164ZM73.2579 12.588C70.6731 15.0738 69.3807 18.1014 69.3807 21.6389V42.9275H77.3935V22.5312C77.3935 20.6509 77.9428 19.1531 79.0736 18.0376C80.2044 16.9222 81.723 16.3486 83.5969 16.3486H87.7972V8.85933H82.563C78.9444 8.85933 75.8426 10.1022 73.2579 12.588ZM144.206 8.5728C149.084 8.5728 153.22 10.2619 156.612 13.6081C160.005 16.9544 161.717 21.0974 161.717 26.0052C161.717 30.945 160.005 35.1198 156.612 38.4979C153.22 41.8761 149.02 43.5651 144.044 43.5651C139.262 43.5651 135.159 41.8442 131.734 38.4342C128.309 35.0242 126.597 30.8812 126.597 26.0052C126.597 21.0974 128.309 16.9863 131.702 13.6081C135.094 10.2619 139.262 8.5728 144.206 8.5728ZM134.804 26.1964C134.804 28.7778 135.741 31.0406 137.614 33.0164C139.488 34.9605 141.685 35.9484 144.206 35.9484C146.629 35.9484 148.794 34.9605 150.7 33.0164C152.574 31.0724 153.543 28.746 153.543 26.069C153.543 23.4238 152.606 21.1611 150.797 19.1852C148.955 17.2412 146.758 16.2533 144.238 16.2533C141.653 16.2533 139.456 17.2412 137.614 19.1852C135.773 21.1292 134.804 23.4876 134.804 26.1964ZM199.844 8.79592L199.856 8.82779H199.844V8.79592ZM199.856 8.82779H204.012C209.505 8.82779 210.862 13.6082 210.862 13.6082C212.656 18.0096 213.926 21.4259 215.36 25.2826C215.94 26.8434 216.547 28.4762 217.227 30.2757C217.47 30.9534 217.76 31.6311 218.168 32.5866C218.355 33.024 218.566 33.5196 218.81 34.1C219.627 31.9561 220.442 29.8912 221.237 27.8768L221.238 27.8742L221.238 27.8739C223.112 23.1222 224.876 18.6513 226.306 14.0862C226.306 14.0862 227.598 8.82779 233.575 8.82779H237C232.154 20.715 227.76 33.9407 224.076 45.8279C220.587 53.8589 210.054 58.4162 201.783 57.97L204.561 48.9829C212.606 46.9752 214.997 45.1267 212.025 37.7331C210.329 33.4786 208.592 29.4631 206.855 25.4476C205.119 21.432 203.382 17.4165 201.686 13.162C201.511 12.7419 201.318 12.3108 201.114 11.8553L201.113 11.8547C200.717 10.9708 200.28 9.99481 199.856 8.82779ZM173.632 30.3713C173.632 31.9648 174.117 33.2714 175.118 34.2593C176.12 35.2791 177.445 35.7572 179.125 35.7891H179.9V42.9277H178.317C178.129 42.9261 177.942 42.9216 177.757 42.9141C174.292 42.7735 171.413 41.6005 169.174 39.4221C166.783 37.0957 165.619 34.0363 165.652 30.2438V0H173.632V9.53274H180.196V16.8248H173.632V30.3713Z" fill="#FFFFFF"/>
</svg>
